P2 
3 3 
255 
0 255 0 
255 255 255 
0 255 0 
